<svg xmlns="http://www.w3.org/2000/svg" width="292.04" height="35" viewBox="0 0 292.04 35"><rect class="svg__rect" x="0" y="0" width="127.25" height="35" fill="#E5E8E9"/><rect class="svg__rect" x="125.25" y="0" width="166.79000000000002" height="35" fill="#5D9741"/><path class="svg__text" d="M15.70 22L14.22 22L14.22 13.47L17.48 13.47Q18.91 13.47 19.75 14.21Q20.59 14.96 20.59 16.18L20.59 16.18Q20.59 17.44 19.77 18.13Q18.95 18.83 17.46 18.83L17.46 18.83L15.70 18.83L15.70 22ZM15.70 14.66L15.70 17.64L17.48 17.64Q18.27 17.64 18.69 17.27Q19.10 16.90 19.10 16.19L19.10 16.19Q19.10 15.50 18.68 15.09Q18.26 14.68 17.52 14.66L17.52 14.66L15.70 14.66ZM24.61 18.00L24.61 18.00L24.61 17.52Q24.61 16.28 25.05 15.32Q25.49 14.37 26.30 13.86Q27.10 13.35 28.14 13.35Q29.19 13.35 29.99 13.85Q30.80 14.35 31.24 15.29Q31.68 16.23 31.68 17.48L31.68 17.48L31.68 17.96Q31.68 19.21 31.25 20.16Q30.82 21.10 30.01 21.61Q29.21 22.12 28.16 22.12L28.16 22.12Q27.12 22.12 26.31 21.61Q25.50 21.10 25.05 20.17Q24.61 19.23 24.61 18.00ZM26.09 17.46L26.09 17.96Q26.09 19.36 26.64 20.13Q27.18 20.90 28.16 20.90L28.16 20.90Q29.14 20.90 29.67 20.15Q30.20 19.40 30.20 17.96L30.20 17.96L30.20 17.51Q30.20 16.09 29.67 15.34Q29.13 14.58 28.14 14.58L28.14 14.58Q27.18 14.58 26.64 15.33Q26.10 16.09 26.09 17.46L26.09 17.46ZM37.53 22L35.56 13.47L37.03 13.47L38.36 19.88L39.99 13.47L41.23 13.47L42.84 19.89L44.15 13.47L45.62 13.47L43.65 22L42.24 22L40.61 15.77L38.96 22L37.53 22ZM55.27 22L49.70 22L49.70 13.47L55.23 13.47L55.23 14.66L51.18 14.66L51.18 17.02L54.68 17.02L54.68 18.19L51.18 18.19L51.18 20.82L55.27 20.82L55.27 22ZM60.95 22L59.47 22L59.47 13.47L62.47 13.47Q63.95 13.47 64.75 14.13Q65.55 14.79 65.55 16.05L65.55 16.05Q65.55 16.90 65.14 17.48Q64.72 18.06 63.99 18.37L63.99 18.37L65.90 21.92L65.90 22L64.31 22L62.60 18.71L60.95 18.71L60.95 22ZM60.95 14.66L60.95 17.52L62.48 17.52Q63.23 17.52 63.65 17.15Q64.07 16.77 64.07 16.11L64.07 16.11Q64.07 15.43 63.68 15.05Q63.29 14.68 62.52 14.66L62.52 14.66L60.95 14.66ZM75.52 22L69.95 22L69.95 13.47L75.48 13.47L75.48 14.66L71.43 14.66L71.43 17.02L74.93 17.02L74.93 18.19L71.43 18.19L71.43 20.82L75.52 20.82L75.52 22ZM82.17 22L79.72 22L79.72 13.47L82.24 13.47Q83.37 13.47 84.25 13.97Q85.12 14.48 85.60 15.40Q86.08 16.33 86.08 17.52L86.08 17.52L86.08 17.95Q86.08 19.16 85.60 20.08Q85.12 21.00 84.22 21.50Q83.33 22 82.17 22L82.17 22ZM81.20 14.66L81.20 20.82L82.17 20.82Q83.33 20.82 83.96 20.09Q84.58 19.36 84.59 17.99L84.59 17.99L84.59 17.52Q84.59 16.13 83.99 15.40Q83.39 14.66 82.24 14.66L82.24 14.66L81.20 14.66ZM99.64 22L96.52 22L96.52 13.47L99.45 13.47Q100.89 13.47 101.65 14.05Q102.41 14.63 102.41 15.78L102.41 15.78Q102.41 16.36 102.09 16.83Q101.77 17.30 101.16 17.56L101.16 17.56Q101.86 17.75 102.23 18.26Q102.61 18.78 102.61 19.51L102.61 19.51Q102.61 20.71 101.84 21.36Q101.07 22 99.64 22L99.64 22ZM98.01 18.15L98.01 20.82L99.65 20.82Q100.35 20.82 100.74 20.47Q101.14 20.13 101.14 19.51L101.14 19.51Q101.14 18.18 99.78 18.15L99.78 18.15L98.01 18.15ZM98.01 14.66L98.01 17.06L99.46 17.06Q100.15 17.06 100.54 16.75Q100.93 16.43 100.93 15.86L100.93 15.86Q100.93 15.23 100.57 14.95Q100.21 14.66 99.45 14.66L99.45 14.66L98.01 14.66ZM109.12 18.86L106.26 13.47L107.90 13.47L109.87 17.51L111.83 13.47L113.47 13.47L110.61 18.86L110.61 22L109.12 22L109.12 18.86Z" fill="#5D9741"/><path class="svg__text" d="M143.41 22L139.44 22L139.44 13.60L143.41 13.60Q144.79 13.60 145.86 14.12Q146.93 14.63 147.52 15.58Q148.10 16.53 148.10 17.80L148.10 17.80Q148.10 19.07 147.52 20.02Q146.93 20.97 145.86 21.48Q144.79 22 143.41 22L143.41 22ZM141.82 15.50L141.82 20.10L143.32 20.10Q144.39 20.10 145.05 19.49Q145.70 18.88 145.70 17.80L145.70 17.80Q145.70 16.72 145.05 16.11Q144.39 15.50 143.32 15.50L143.32 15.50L141.82 15.50ZM155.21 22L152.83 22L152.83 13.60L155.21 13.60L155.21 22ZM159.96 17.80L159.96 17.80Q159.96 16.54 160.56 15.54Q161.15 14.55 162.22 13.99Q163.29 13.43 164.63 13.43L164.63 13.43Q165.81 13.43 166.75 13.83Q167.69 14.22 168.31 14.97L168.31 14.97L166.80 16.33Q165.95 15.40 164.77 15.40L164.77 15.40Q164.76 15.40 164.76 15.40L164.76 15.40Q163.68 15.40 163.02 16.06Q162.35 16.71 162.35 17.80L162.35 17.80Q162.35 18.50 162.66 19.04Q162.96 19.59 163.50 19.89Q164.04 20.20 164.73 20.20L164.73 20.20Q165.42 20.20 166.02 19.93L166.02 19.93L166.02 17.62L168.11 17.62L168.11 21.10Q167.39 21.61 166.46 21.89Q165.52 22.17 164.59 22.17L164.59 22.17Q163.27 22.17 162.21 21.61Q161.15 21.05 160.56 20.05Q159.96 19.06 159.96 17.80ZM175.48 22L173.11 22L173.11 13.60L175.48 13.60L175.48 22ZM182.45 15.48L179.87 15.48L179.87 13.60L187.39 13.60L187.39 15.48L184.82 15.48L184.82 22L182.45 22L182.45 15.48ZM193.18 22L190.75 22L194.46 13.60L196.81 13.60L200.52 22L198.06 22L197.39 20.37L193.84 20.37L193.18 22ZM195.62 15.93L194.53 18.61L196.70 18.61L195.62 15.93ZM211.06 22L204.68 22L204.68 13.60L207.06 13.60L207.06 20.11L211.06 20.11L211.06 22ZM221.87 21.24L221.87 21.24L222.65 19.49Q223.21 19.86 223.95 20.09Q224.70 20.32 225.42 20.32L225.42 20.32Q226.78 20.32 226.79 19.64L226.79 19.64Q226.79 19.28 226.40 19.11Q226.01 18.93 225.14 18.74L225.14 18.74Q224.19 18.53 223.56 18.30Q222.92 18.06 222.47 17.55Q222.01 17.03 222.01 16.16L222.01 16.16Q222.01 15.39 222.43 14.77Q222.85 14.15 223.69 13.79Q224.52 13.43 225.73 13.43L225.73 13.43Q226.56 13.43 227.36 13.62Q228.17 13.80 228.78 14.17L228.78 14.17L228.05 15.93Q226.85 15.28 225.72 15.28L225.72 15.28Q225.01 15.28 224.69 15.49Q224.36 15.70 224.36 16.04L224.36 16.04Q224.36 16.37 224.75 16.54Q225.13 16.71 225.98 16.89L225.98 16.89Q226.94 17.10 227.57 17.33Q228.20 17.56 228.66 18.07Q229.13 18.58 229.13 19.46L229.13 19.46Q229.13 20.21 228.71 20.83Q228.29 21.44 227.45 21.80Q226.61 22.17 225.41 22.17L225.41 22.17Q224.39 22.17 223.43 21.92Q222.47 21.67 221.87 21.24ZM236.08 22L233.70 22L233.70 13.60L237.55 13.60Q238.68 13.60 239.52 13.98Q240.37 14.35 240.82 15.06Q241.28 15.76 241.28 16.71L241.28 16.71Q241.28 17.66 240.82 18.35Q240.37 19.05 239.52 19.42Q238.68 19.80 237.55 19.80L237.55 19.80L236.08 19.80L236.08 22ZM236.08 15.47L236.08 17.93L237.40 17.93Q238.13 17.93 238.51 17.61Q238.88 17.29 238.88 16.71L238.88 16.71Q238.88 16.12 238.51 15.80Q238.13 15.47 237.40 15.47L237.40 15.47L236.08 15.47ZM248.41 22L246.03 22L246.03 13.60L248.41 13.60L248.41 22ZM255.96 22L253.58 22L253.58 13.60L257.43 13.60Q258.57 13.60 259.41 13.98Q260.25 14.35 260.70 15.06Q261.16 15.76 261.16 16.71L261.16 16.71Q261.16 17.62 260.73 18.30Q260.31 18.98 259.51 19.36L259.51 19.36L261.32 22L258.78 22L257.26 19.77L255.96 19.77L255.96 22ZM255.96 15.47L255.96 17.93L257.28 17.93Q258.01 17.93 258.39 17.61Q258.76 17.29 258.76 16.71L258.76 16.71Q258.76 16.12 258.39 15.79Q258.01 15.47 257.28 15.47L257.28 15.47L255.96 15.47ZM268.33 22L265.95 22L265.95 13.60L268.33 13.60L268.33 22ZM275.29 15.48L272.71 15.48L272.71 13.60L280.23 13.60L280.23 15.48L277.67 15.48L277.67 22L275.29 22L275.29 15.48Z" fill="#FFFFFF" x="138.25"/></svg>